<?xml version="1.0" encoding="us-ascii" standalone="no"?><svg xmlns="http://www.w3.org/2000/svg" xmlns:xlink="http://www.w3.org/1999/xlink" contentStyleType="text/css" height="843.75px" preserveAspectRatio="none" style="width:789px;height:843px;background:#FFFFFF;" version="1.1" viewBox="0 0 789 843" width="789.5833px" zoomAndPan="magnify"><defs/><g><rect fill="#777777" height="420.8415" style="stroke:#555555;stroke-width:1.0416666666666667;" width="10.4167" x="214.0625" y="141.8416"/><rect fill="#777777" height="124.3083" style="stroke:#555555;stroke-width:1.0416666666666667;" width="10.4167" x="214.0625" y="602.8748"/><rect fill="#777777" height="80.3833" style="stroke:#555555;stroke-width:1.0416666666666667;" width="10.4167" x="474.4792" y="248.8749"/><line style="stroke:#555555;stroke-width:1.0416666666666667;stroke-dasharray:5.0,5.0;" x1="38.5417" x2="38.5417" y1="99.5667" y2="745.933"/><line style="stroke:#555555;stroke-width:1.0416666666666667;stroke-dasharray:5.0,5.0;" x1="219.2708" x2="219.2708" y1="99.5667" y2="745.933"/><line style="stroke:#555555;stroke-width:1.0416666666666667;stroke-dasharray:5.0,5.0;" x1="479.6875" x2="479.6875" y1="99.5667" y2="745.933"/><line style="stroke:#555555;stroke-width:1.0416666666666667;stroke-dasharray:5.0,5.0;" x1="693.2292" x2="693.2292" y1="186.4166" y2="745.933"/><text fill="#800080" font-family="Verdana" font-size="12.5" lengthAdjust="spacing" textLength="30.2083" x="20.8333" y="91.7338">User</text><ellipse cx="39.0625" cy="19.7917" fill="#2A9FD6" rx="8.3333" ry="8.3333" style="stroke:#55B2DE;stroke-width:1.0416666666666667;"/><path d="M39.0625,28.125 L39.0625,56.25 M25.5208,36.4583 L52.6042,36.4583 M39.0625,56.25 L25.5208,71.875 M39.0625,56.25 L52.6042,71.875 " fill="none" style="stroke:#55B2DE;stroke-width:1.0416666666666667;"/><text fill="#800080" font-family="Verdana" font-size="12.5" lengthAdjust="spacing" textLength="30.2083" x="20.8333" y="762.6668">User</text><ellipse cx="39.0625" cy="779.8747" fill="#2A9FD6" rx="8.3333" ry="8.3333" style="stroke:#55B2DE;stroke-width:1.0416666666666667;"/><path d="M39.0625,788.208 L39.0625,816.333 M25.5208,796.5413 L52.6042,796.5413 M39.0625,816.333 L25.5208,831.958 M39.0625,816.333 L52.6042,831.958 " fill="none" style="stroke:#55B2DE;stroke-width:1.0416666666666667;"/><rect fill="#2A9FD6" height="40.1917" rx="4.1667" ry="4.1667" style="stroke:#55B2DE;stroke-width:1.0416666666666667;" width="68.75" x="184.8958" y="58.3333"/><text fill="#800080" font-family="Verdana" font-size="12.5" lengthAdjust="spacing" textLength="43.75" x="197.3958" y="83.4005">CPPPC</text><rect fill="#2A9FD6" height="40.1917" rx="4.1667" ry="4.1667" style="stroke:#55B2DE;stroke-width:1.0416666666666667;" width="68.75" x="184.8958" y="744.8914"/><text fill="#800080" font-family="Verdana" font-size="12.5" lengthAdjust="spacing" textLength="43.75" x="197.3958" y="769.9585">CPPPC</text><rect fill="#2A9FD6" height="40.1917" rx="4.1667" ry="4.1667" style="stroke:#55B2DE;stroke-width:1.0416666666666667;" width="68.75" x="445.3125" y="58.3333"/><text fill="#800080" font-family="Verdana" font-size="12.5" lengthAdjust="spacing" textLength="43.75" x="457.8125" y="83.4005">CMake</text><rect fill="#2A9FD6" height="40.1917" rx="4.1667" ry="4.1667" style="stroke:#55B2DE;stroke-width:1.0416666666666667;" width="68.75" x="445.3125" y="744.8914"/><text fill="#800080" font-family="Verdana" font-size="12.5" lengthAdjust="spacing" textLength="43.75" x="457.8125" y="769.9585">CMake</text><rect fill="#2A9FD6" height="40.1917" rx="4.1667" ry="4.1667" style="stroke:#55B2DE;stroke-width:1.0416666666666667;" width="170.8333" x="607.8125" y="744.8914"/><text fill="#800080" font-family="Verdana" font-size="12.5" lengthAdjust="spacing" textLength="145.8333" x="620.3125" y="769.9585">Dummy CMake Project</text><rect fill="#777777" height="420.8415" style="stroke:#555555;stroke-width:1.0416666666666667;" width="10.4167" x="214.0625" y="141.8416"/><rect fill="#777777" height="124.3083" style="stroke:#555555;stroke-width:1.0416666666666667;" width="10.4167" x="214.0625" y="602.8748"/><rect fill="#777777" height="80.3833" style="stroke:#555555;stroke-width:1.0416666666666667;" width="10.4167" x="474.4792" y="248.8749"/><polygon fill="#2A9FD6" points="201.5625,137.675,211.9792,141.8416,201.5625,146.0083,205.7292,141.8416" style="stroke:#2A9FD6;stroke-width:1.0416666666666667;"/><line style="stroke:#2A9FD6;stroke-width:3.125;" x1="39.0625" x2="207.8125" y1="141.8416" y2="141.8416"/><text fill="#800080" font-family="Verdana" font-size="12.5" lengthAdjust="spacing" textLength="139.5833" x="51.5625" y="131.9255">Provide Library Name</text><polygon fill="#2A9FD6" points="595.3125,177.8666,605.7292,182.0333,595.3125,186.2,599.4792,182.0333" style="stroke:#2A9FD6;stroke-width:1.0416666666666667;"/><line style="stroke:#2A9FD6;stroke-width:3.125;" x1="224.4792" x2="601.5625" y1="182.0333" y2="182.0333"/><text fill="#800080" font-family="Verdana" font-size="12.5" lengthAdjust="spacing" textLength="194.7917" x="236.9792" y="172.1171">Create Dummy CMake Project</text><rect fill="#2A9FD6" height="40.1917" rx="4.1667" ry="4.1667" style="stroke:#55B2DE;stroke-width:1.0416666666666667;" width="170.8333" x="607.8125" y="150.175"/><text fill="#800080" font-family="Verdana" font-size="12.5" lengthAdjust="spacing" textLength="145.8333" x="620.3125" y="175.2421">Dummy CMake Project</text><polygon fill="#2A9FD6" points="461.9792,244.7083,472.3958,248.8749,461.9792,253.0416,466.1458,248.8749" style="stroke:#2A9FD6;stroke-width:1.0416666666666667;"/><line style="stroke:#2A9FD6;stroke-width:3.125;" x1="224.4792" x2="468.2292" y1="248.8749" y2="248.8749"/><text fill="#800080" font-family="Verdana" font-size="12.5" lengthAdjust="spacing" textLength="169.7917" x="236.9792" y="223.7671">Execute CMake Command</text><text fill="#800080" font-family="Verdana" font-size="12.5" lengthAdjust="spacing" textLength="141.6667" x="236.9792" y="238.9587">with --debug-find flag</text><polygon fill="#2A9FD6" points="680.7292,284.8999,691.1458,289.0666,680.7292,293.2332,684.8958,289.0666" style="stroke:#2A9FD6;stroke-width:1.0416666666666667;"/><line style="stroke:#2A9FD6;stroke-width:3.125;" x1="484.8958" x2="686.9792" y1="289.0666" y2="289.0666"/><text fill="#800080" font-family="Verdana" font-size="12.5" lengthAdjust="spacing" textLength="63.5417" x="497.3958" y="279.1504">Configure</text><polygon fill="#2A9FD6" points="235.9375,325.0916,225.5208,329.2582,235.9375,333.4249,231.7708,329.2582" style="stroke:#2A9FD6;stroke-width:1.0416666666666667;"/><line style="stroke:#2A9FD6;stroke-width:3.125;stroke-dasharray:2.0,2.0;" x1="229.6875" x2="478.6458" y1="329.2582" y2="329.2582"/><text fill="#800080" font-family="Verdana" font-size="12.5" lengthAdjust="spacing" textLength="213.5417" x="247.3958" y="319.342">CMake Output (Logs with Paths)</text><polygon fill="#2A9FD6" points="680.7292,365.2832,691.1458,369.4499,680.7292,373.6165,684.8958,369.4499" style="stroke:#2A9FD6;stroke-width:1.0416666666666667;"/><line style="stroke:#2A9FD6;stroke-width:3.125;" x1="224.4792" x2="686.9792" y1="369.4499" y2="369.4499"/><text fill="#800080" font-family="Verdana" font-size="12.5" lengthAdjust="spacing" textLength="54.1667" x="236.9792" y="359.5337">Cleanup</text><line style="stroke:#555555;stroke-width:2.0833333333333335;" x1="683.8542" x2="702.6042" y1="360.0749" y2="378.8249"/><line style="stroke:#555555;stroke-width:2.0833333333333335;" x1="683.8542" x2="702.6042" y1="378.8249" y2="360.0749"/><line style="stroke:#2A9FD6;stroke-width:3.125;" x1="224.4792" x2="268.2292" y1="424.8332" y2="424.8332"/><line style="stroke:#2A9FD6;stroke-width:3.125;" x1="268.2292" x2="268.2292" y1="424.8332" y2="438.3748"/><line style="stroke:#2A9FD6;stroke-width:3.125;" x1="225.5208" x2="268.2292" y1="438.3748" y2="438.3748"/><polygon fill="#2A9FD6" points="235.9375,434.2082,225.5208,438.3748,235.9375,442.5415,231.7708,438.3748" style="stroke:#2A9FD6;stroke-width:1.0416666666666667;"/><text fill="#800080" font-family="Verdana" font-size="12.5" lengthAdjust="spacing" textLength="218.75" x="236.9792" y="399.7253">Parse CMake Output for configfile</text><text fill="#800080" font-family="Verdana" font-size="12.5" lengthAdjust="spacing" textLength="222.9167" x="236.9792" y="414.917">Paths and library CMake variables</text><line style="stroke:#2A9FD6;stroke-width:3.125;" x1="224.4792" x2="268.2292" y1="493.7581" y2="493.7581"/><line style="stroke:#2A9FD6;stroke-width:3.125;" x1="268.2292" x2="268.2292" y1="493.7581" y2="507.2998"/><line style="stroke:#2A9FD6;stroke-width:3.125;" x1="225.5208" x2="268.2292" y1="507.2998" y2="507.2998"/><polygon fill="#2A9FD6" points="235.9375,503.1331,225.5208,507.2998,235.9375,511.4665,231.7708,507.2998" style="stroke:#2A9FD6;stroke-width:1.0416666666666667;"/><text fill="#800080" font-family="Verdana" font-size="12.5" lengthAdjust="spacing" textLength="211.4583" x="236.9792" y="468.6503">Parse Config Files with Regex to</text><text fill="#800080" font-family="Verdana" font-size="12.5" lengthAdjust="spacing" textLength="225" x="236.9792" y="483.842">Retrieve Targets and Components</text><polygon fill="#2A9FD6" points="50.5208,558.5164,40.1042,562.6831,50.5208,566.8498,46.3542,562.6831" style="stroke:#2A9FD6;stroke-width:1.0416666666666667;"/><line style="stroke:#2A9FD6;stroke-width:3.125;stroke-dasharray:2.0,2.0;" x1="44.2708" x2="218.2292" y1="562.6831" y2="562.6831"/><text fill="#800080" font-family="Verdana" font-size="12.5" lengthAdjust="spacing" textLength="134.375" x="61.9792" y="537.5753">Present Targets and</text><text fill="#800080" font-family="Verdana" font-size="12.5" lengthAdjust="spacing" textLength="127.0833" x="61.9792" y="552.7669">Components in GUI</text><polygon fill="#2A9FD6" points="201.5625,598.7081,211.9792,602.8748,201.5625,607.0414,205.7292,602.8748" style="stroke:#2A9FD6;stroke-width:1.0416666666666667;"/><line style="stroke:#2A9FD6;stroke-width:3.125;" x1="39.0625" x2="207.8125" y1="602.8748" y2="602.8748"/><text fill="#800080" font-family="Verdana" font-size="12.5" lengthAdjust="spacing" textLength="141.6667" x="51.5625" y="592.9586">Select Targets to Link</text><line style="stroke:#2A9FD6;stroke-width:3.125;" x1="224.4792" x2="268.2292" y1="658.2581" y2="658.2581"/><line style="stroke:#2A9FD6;stroke-width:3.125;" x1="268.2292" x2="268.2292" y1="658.2581" y2="671.7997"/><line style="stroke:#2A9FD6;stroke-width:3.125;" x1="225.5208" x2="268.2292" y1="671.7997" y2="671.7997"/><polygon fill="#2A9FD6" points="235.9375,667.6331,225.5208,671.7997,235.9375,675.9664,231.7708,671.7997" style="stroke:#2A9FD6;stroke-width:1.0416666666666667;"/><text fill="#800080" font-family="Verdana" font-size="12.5" lengthAdjust="spacing" textLength="191.6667" x="236.9792" y="633.1502">Generate CMake Project with</text><text fill="#800080" font-family="Verdana" font-size="12.5" lengthAdjust="spacing" textLength="159.375" x="236.9792" y="648.3419">Selected Library Targets</text><polygon fill="#2A9FD6" points="50.5208,723.0164,40.1042,727.183,50.5208,731.3497,46.3542,727.183" style="stroke:#2A9FD6;stroke-width:1.0416666666666667;"/><line style="stroke:#2A9FD6;stroke-width:3.125;stroke-dasharray:2.0,2.0;" x1="44.2708" x2="218.2292" y1="727.183" y2="727.183"/><text fill="#800080" font-family="Verdana" font-size="12.5" lengthAdjust="spacing" textLength="98.9583" x="61.9792" y="702.0752">Get Configured</text><text fill="#800080" font-family="Verdana" font-size="12.5" lengthAdjust="spacing" textLength="139.5833" x="61.9792" y="717.2668">CMake-Based Project</text><!--SRC=[TLBBKiCm3BpdAmHSu90VuC2101rc2cHut7fH4YKrTUoCBHVwz_WHcYOCHqkhNQsyPxobdg0-LDfqcTq9DQ317YgiTvtHJZM5bjh0nTTMC9q0xgX59_b1Aqw8mPb1KeOr-yU79PDv88jQ3AWOYh8iYtdb2NSqgvpVkRu_f0QKHdzIpUU05c8zuRCiK4D-anYl0sul6eArg0oQ0pnZ7vSGUsGQPRFQK7YTyCH6e9bgrr2SmEPhPDF0YBt_fje5XGWhTD-ZQc2ZlWHl8SyRgboNjyBNMedToKP9FaujvRLgHUUCTpds9vkfyE9uS0oNQzrPY4ebyjPUPGqj1FunA0cL6ppSij67sM4dW-DXqLYQwxR-P-kuP2iaURDH7O9nEPu_uVTe15QIx7-iaGGUFCleuvKw-WRMdlILs0ZQ4xoZwOWJlp_me1KfFb9wpX25a02olZ63RzGq04B1wkDnTgCKYqMKtaZwhpxo-6NMGksMOLewMf4YSppyRs2IgurAdDGSypco_t6n8fu240q4klmMhN_zfl2FXHy0]--></g></svg>