<?xml version="1.0" encoding="UTF-8" standalone="no"?>
<svg
   width="240.38412"
   height="240.38412"
   version="1.1"
   id="svg6"
   xmlns="http://www.w3.org/2000/svg"
   xmlns:svg="http://www.w3.org/2000/svg">
  <defs
     id="defs2" />
  <g
     transform="translate(-2661.4109,-1400.8186)"
     id="g6">
    <path
       id="path1"
       style="display:inline;fill:#000000;fill-opacity:0.988235;stroke:#000000;stroke-width:0.386076"
       d="m 90.742188,-57.642578 a 119.99959,119.99959 0 0 0 -119.998047,120 A 119.99959,119.99959 0 0 0 90.742188,182.35547 119.99959,119.99959 0 0 0 210.74219,62.357422 a 119.99959,119.99959 0 0 0 -120.000002,-120 z M 2.0410156,0.00390625 C 62.02319,-4.75646e-4 122.00561,-4.75646e-4 181.98828,0.00390625 175.26772,6.5559795 168.70211,13.253114 161.95117,19.775391 c -8.22579,7.966671 -16.24456,16.130051 -24.46289,24.103515 -4.67517,4.645712 -9.49239,9.156666 -14.05078,13.91211 -8.17035,8.029385 -16.4034,16.00325 -24.515625,24.085937 -4.124363,3.56398 -11.21428,3.430102 -14.941406,-0.638672 C 56.630631,54.194422 29.385525,27.052472 2.0410156,0.00390625 Z M 0,7.9765625 C 19.745234,27.427385 36.891392,45.444679 56.574219,64.955078 37.522315,85.576147 18.74674,105.56297 0,125.83398 0.0191927,86.547731 0.02077895,47.262299 0,7.9765625 Z m 182.95312,0.4628906 c -0.0208,39.2857279 -0.0192,78.5731219 0,117.8593769 C 164.20639,106.02782 145.43082,86.041 126.37891,65.419922 146.06174,45.909523 163.20789,27.890267 182.95312,8.4394531 Z M 61.371094,69.601562 c 4.193684,4.004501 12.347997,11.358429 16.597656,15.308594 9.976866,8.88432 19.577905,8.752262 29.30469,-0.433594 3.87215,-3.797552 10.86719,-10.693455 14.74414,-14.486328 l 56.99414,62.078126 c -59.58437,0.005 -116.689044,0.004 -176.2734388,0 z"
       transform="translate(2690.8598,1458.6542)" />
  </g>
</svg>
