<?xml version="1.0" encoding="UTF-8" standalone="no"?>
<!-- Created with Inkscape (http://www.inkscape.org/) -->

<svg
   width="35.858639mm"
   height="35.859154mm"
   viewBox="0 0 35.85864 35.859153"
   version="1.1"
   id="svg1"
   xml:space="preserve"
   xmlns="http://www.w3.org/2000/svg"
   xmlns:svg="http://www.w3.org/2000/svg"><defs
     id="defs1" /><g
     id="g11"
     transform="translate(-87.414935,-130.34244)"
     style="display:inline"><g
       id="g10"
       transform="matrix(0.26458333,0,0,0.26458333,92.641851,131.65553)"
       style="display:inline"><path
         id="circle9"
         style="display:inline;fill:#000000;fill-opacity:0.988235;stroke:#000000;stroke-width:0.0680563"
         d="M 17.929138,0.03410645 A 17.895359,17.895359 0 0 0 0.03410641,17.929655 17.895359,17.895359 0 0 0 17.929138,35.825204 17.895359,17.895359 0 0 0 35.824687,17.929655 17.895359,17.895359 0 0 0 17.929138,0.03410645 Z M 17.742069,5.3727987 c 1.924251,-0.00272 3.849187,0.5399807 5.520594,1.6283244 0.834696,0.5435158 1.565447,1.1965666 2.179195,1.9301147 3.7e-4,3.704e-4 1.73e-4,6.631e-4 5.17e-4,0.00103 6.158337,6.5417832 -0.764501,15.5725312 -5.506124,21.7619802 l -2.084627,2.462381 C 17.789194,33.004984 16.492194,31.73617 15.563391,30.583659 11.762133,25.536752 7.6610891,20.736485 7.8486165,15.531352 7.7812246,14.184972 7.9989986,12.855826 8.4780355,11.62358 9.1929622,9.7845456 10.47956,8.1610488 12.226127,7.016626 13.894303,5.9235688 15.817819,5.3755149 17.742069,5.3727987 Z m 0.537952,2.7796753 a 7.3730892,7.5994807 0 0 0 -7.626924,6.050277 7.3730892,7.5994807 0 0 0 5.682857,8.969478 l 0.183968,0.03824 A 7.3730892,7.5994807 0 0 0 25.112679,17.182931 7.3730892,7.5994807 0 0 0 19.319234,8.288383 7.3730892,7.5994807 0 0 0 18.280021,8.152474 Z m -0.237195,2.534729 a 4.8759991,4.9827859 0 0 1 0.687814,0.08888 4.8759991,4.9827859 0 0 1 3.830774,5.832203 4.8759991,4.9827859 0 0 1 -5.682858,3.951696 l -0.121439,-0.02429 a 4.8759991,4.9827859 0 0 1 -3.758427,-5.881811 4.8759991,4.9827859 0 0 1 5.044136,-3.966683 z"
         transform="matrix(3.7795276,0,0,3.7795276,-19.755568,-4.9631623)" /><path
         id="path10"
         style="display:none;opacity:1;fill:#000000;fill-opacity:0;fill-rule:nonzero;stroke:none"
         d="M 50.489713,27.640354 A 26.010695,20.991087 0 0 0 23.581509,44.351291 26.010695,20.991087 0 0 0 43.630337,69.128636 l 0.648438,0.105468 a 26.010695,20.991087 0 0 0 30.314453,-16.650391 26.010695,20.991087 0 0 0 -20.4375,-24.568359 26.010695,20.991087 0 0 0 -3.666015,-0.375 z M 34.310025,91.060276 a 16.655972,11.750445 0 0 0 -15.25586,9.349614 16.655972,11.750445 0 0 0 12.837891,13.86914 l 0.416016,0.0586 A 16.655972,11.750445 0 0 0 51.718228,105.01926 16.655972,11.750445 0 0 0 38.632291,91.265355 16.655972,11.750445 0 0 0 34.310025,91.060276 Z"
         transform="translate(0.64534523)" /></g></g></svg>
