<?xml version="1.0" encoding="UTF-8" standalone="no"?>
<!-- Created with Inkscape (http://www.inkscape.org/) -->

<svg
   width="35.858639mm"
   height="35.859154mm"
   viewBox="0 0 35.85864 35.859153"
   version="1.1"
   id="svg1"
   xml:space="preserve"
   xmlns="http://www.w3.org/2000/svg"
   xmlns:svg="http://www.w3.org/2000/svg"><defs
     id="defs1" /><path
     id="path1"
     style="fill:#000000;fill-opacity:0.988235;stroke:#000000;stroke-width:0.0680563"
     d="M 17.929576,0.03402822 A 17.895359,17.895359 0 0 0 0.03402823,17.929577 17.895359,17.895359 0 0 0 17.929576,35.825125 17.895359,17.895359 0 0 0 35.824608,17.929577 17.895359,17.895359 0 0 0 17.929576,0.03402822 Z M 12.297879,3.9991609 h 11.215853 c 0.759406,0 1.416504,0.2775566 1.971456,0.8325073 0.55495,0.5549507 0.832507,1.2120494 0.832507,1.9714559 V 29.23483 c 0,0.759406 -0.277557,1.416504 -0.832507,1.971456 -0.554952,0.55495 -1.21205,0.832507 -1.971456,0.832507 H 12.297879 c -0.759406,0 -1.416505,-0.277557 -1.971456,-0.832507 C 9.7714719,30.651334 9.4939159,29.994236 9.4939159,29.23483 V 6.8031241 c 0,-0.7594065 0.277556,-1.4165052 0.8325071,-1.9714559 0.554951,-0.5549507 1.21205,-0.8325073 1.971456,-0.8325073 z m 3.855578,2.8039632 c -0.233665,0 -0.350883,0.1167029 -0.350883,0.3503662 0,0.2336638 0.117218,0.350883 0.350883,0.350883 h 3.504696 c 0.233663,0 0.350366,-0.1172192 0.350366,-0.350883 0,-0.2336633 -0.116703,-0.3503662 -0.350366,-0.3503662 z m -3.855578,2.8039632 c -0.189851,0 -0.354255,0.069518 -0.492993,0.208256 C 11.666148,9.954081 11.59663,10.118485 11.59663,10.308337 v 15.421797 c 0,0.189852 0.06952,0.353739 0.208256,0.492476 0.138738,0.138738 0.303142,0.208256 0.492993,0.208256 h 11.215853 c 0.189852,0 0.354256,-0.06952 0.492993,-0.208256 0.138738,-0.138737 0.207739,-0.302624 0.207739,-0.492476 V 10.308337 c 0,-0.189852 -0.069,-0.354256 -0.207739,-0.4929937 -0.138737,-0.1387376 -0.303141,-0.208256 -0.492993,-0.208256 z m 5.607926,17.8753947 c -0.481931,0 -0.894457,0.171503 -1.23765,0.514697 -0.343193,0.343193 -0.514698,0.75572 -0.514698,1.237651 0,0.481931 0.171505,0.894457 0.514698,1.23765 0.343193,0.343193 0.755719,0.514697 1.23765,0.514697 0.481931,0 0.894458,-0.171504 1.237651,-0.514697 0.343193,-0.343193 0.514697,-0.755719 0.514697,-1.23765 0,-0.481931 -0.171504,-0.894458 -0.514697,-1.237651 -0.343193,-0.343194 -0.75572,-0.514697 -1.237651,-0.514697 z" /></svg>
